<mxfile host="65bd71144e">
    <diagram id="3qWkbU3FlFtp5rMVhu81" name="Page-1">
        <mxGraphModel dx="774" dy="804" grid="1" gridSize="10" guides="1" tooltips="1" connect="1" arrows="1" fold="1" page="1" pageScale="1" pageWidth="850" pageHeight="1100" math="0" shadow="0">
            <root>
                <mxCell id="0"/>
                <mxCell id="1" parent="0"/>
                <mxCell id="18" style="edgeStyle=none;html=1;fontSize=17;exitX=0.5;exitY=0;exitDx=0;exitDy=0;entryX=0.5;entryY=0;entryDx=0;entryDy=0;" edge="1" parent="1" source="6" target="6">
                    <mxGeometry relative="1" as="geometry">
                        <mxPoint x="350" y="90" as="targetPoint"/>
                    </mxGeometry>
                </mxCell>
                <mxCell id="20" value="" style="edgeStyle=none;html=1;fontSize=17;" edge="1" parent="1" source="3" target="6">
                    <mxGeometry relative="1" as="geometry"/>
                </mxCell>
                <mxCell id="3" value="&lt;b&gt;&lt;font style=&quot;font-size: 17px;&quot;&gt;Flow Chart for Hungman Gane&lt;/font&gt;&lt;/b&gt;" style="text;strokeColor=#006EAF;align=center;fillColor=#1ba1e2;html=1;verticalAlign=middle;whiteSpace=wrap;rounded=1;fontColor=#ffffff;dashed=1;gradientColor=none;opacity=60;" vertex="1" parent="1">
                    <mxGeometry x="280" y="40" width="140" height="40" as="geometry"/>
                </mxCell>
                <mxCell id="6" value="Generate a Random Word" style="text;strokeColor=#A50040;align=center;fillColor=#d80073;html=1;verticalAlign=middle;whiteSpace=wrap;rounded=1;dashed=1;fontSize=17;opacity=60;fontColor=#ffffff;" vertex="1" parent="1">
                    <mxGeometry x="272.5" y="180" width="155" height="70" as="geometry"/>
                </mxCell>
                <mxCell id="8" value="Generate as many blanks as letter in word" style="text;strokeColor=#A50040;align=center;fillColor=#d80073;html=1;verticalAlign=middle;whiteSpace=wrap;rounded=1;dashed=1;fontSize=17;opacity=60;fontColor=#ffffff;" vertex="1" parent="1">
                    <mxGeometry x="200" y="370" width="300" height="40" as="geometry"/>
                </mxCell>
                <mxCell id="9" value="" style="endArrow=classic;html=1;fontSize=17;entryX=0.5;entryY=0;entryDx=0;entryDy=0;" edge="1" parent="1" target="8">
                    <mxGeometry width="50" height="50" relative="1" as="geometry">
                        <mxPoint x="349.5" y="250" as="sourcePoint"/>
                        <mxPoint x="349.5" y="330" as="targetPoint"/>
                    </mxGeometry>
                </mxCell>
                <mxCell id="16" value="" style="edgeStyle=none;html=1;fontSize=17;" edge="1" parent="1" source="10" target="15">
                    <mxGeometry relative="1" as="geometry"/>
                </mxCell>
                <mxCell id="10" value="Ask the User to guess a letter" style="text;strokeColor=#A50040;align=center;fillColor=#d80073;html=1;verticalAlign=middle;whiteSpace=wrap;rounded=1;dashed=1;fontSize=17;opacity=60;fontColor=#ffffff;glass=0;" vertex="1" parent="1">
                    <mxGeometry x="230" y="510" width="240" height="30" as="geometry"/>
                </mxCell>
                <mxCell id="11" value="" style="endArrow=classic;html=1;fontSize=17;entryX=0.5;entryY=0;entryDx=0;entryDy=0;" edge="1" parent="1" target="10">
                    <mxGeometry width="50" height="50" relative="1" as="geometry">
                        <mxPoint x="349.5" y="410" as="sourcePoint"/>
                        <mxPoint x="349.5" y="490" as="targetPoint"/>
                    </mxGeometry>
                </mxCell>
                <mxCell id="25" value="" style="edgeStyle=none;html=1;fontSize=14;" edge="1" parent="1" source="15" target="24">
                    <mxGeometry relative="1" as="geometry"/>
                </mxCell>
                <mxCell id="28" value="" style="edgeStyle=none;html=1;fontSize=14;" edge="1" parent="1" source="15" target="27">
                    <mxGeometry relative="1" as="geometry"/>
                </mxCell>
                <mxCell id="15" value="&lt;span style=&quot;color: rgb(240, 240, 240); font-size: 14px;&quot;&gt;&lt;font style=&quot;font-size: 14px;&quot;&gt;Is the guessed letter in the word?&lt;/font&gt;&lt;/span&gt;" style="rhombus;whiteSpace=wrap;html=1;fontSize=14;fillColor=#0050ef;strokeColor=#001DBC;fontColor=#ffffff;rounded=1;dashed=1;opacity=60;glass=0;verticalAlign=middle;align=center;textDirection=ltr;" vertex="1" parent="1">
                    <mxGeometry x="280" y="650" width="140" height="140" as="geometry"/>
                </mxCell>
                <mxCell id="24" value="&lt;b&gt;&lt;font style=&quot;font-size: 16px;&quot;&gt;Replace the blank with the letter&lt;/font&gt;&lt;/b&gt;" style="whiteSpace=wrap;html=1;fontSize=14;fillColor=#60a917;strokeColor=#2D7600;fontColor=#ffffff;rounded=1;dashed=1;opacity=60;glass=0;" vertex="1" parent="1">
                    <mxGeometry x="110" y="860" width="140" height="70" as="geometry"/>
                </mxCell>
                <mxCell id="26" value="&lt;b&gt;YES&lt;/b&gt;" style="text;strokeColor=none;align=center;fillColor=none;html=1;verticalAlign=middle;whiteSpace=wrap;rounded=0;glass=0;dashed=1;sketch=0;fontSize=14;opacity=60;rotation=-45;" vertex="1" parent="1">
                    <mxGeometry x="212.5" y="790" width="60" height="30" as="geometry"/>
                </mxCell>
                <mxCell id="27" value="&lt;b&gt;&lt;font style=&quot;font-size: 16px;&quot;&gt;Choose a life&lt;/font&gt;&lt;/b&gt;" style="whiteSpace=wrap;html=1;fontSize=14;fillColor=#e51400;strokeColor=#B20000;fontColor=#ffffff;rounded=1;dashed=1;opacity=60;glass=0;" vertex="1" parent="1">
                    <mxGeometry x="470" y="860" width="130" height="70" as="geometry"/>
                </mxCell>
                <mxCell id="31" value="&lt;b&gt;No&lt;/b&gt;" style="text;strokeColor=none;align=center;fillColor=none;html=1;verticalAlign=middle;whiteSpace=wrap;rounded=0;glass=0;dashed=1;sketch=0;fontSize=16;opacity=60;rotation=45;" vertex="1" parent="1">
                    <mxGeometry x="450" y="790" width="60" height="30" as="geometry"/>
                </mxCell>
            </root>
        </mxGraphModel>
    </diagram>
</mxfile>